<mxfile host="app.diagrams.net" modified="2021-05-25T18:38:54.111Z" agent="5.0 (Macintosh; Intel Mac OS X 10_15_7) AppleWebKit/605.1.15 (KHTML, like Gecko) Version/14.1 Safari/605.1.15" etag="xwBUB5bcYEjyQxtB0cWl" version="14.7.1" type="github">
  <diagram id="R2lEEEUBdFMjLlhIrx00" name="Page-1">
    <mxGraphModel dx="1426" dy="753" grid="1" gridSize="10" guides="1" tooltips="1" connect="1" arrows="1" fold="1" page="1" pageScale="1" pageWidth="850" pageHeight="1100" math="0" shadow="0" extFonts="Permanent Marker^https://fonts.googleapis.com/css?family=Permanent+Marker">
      <root>
        <mxCell id="0" />
        <mxCell id="1" parent="0" />
        <mxCell id="C-vyLk0tnHw3VtMMgP7b-12" value="" style="edgeStyle=entityRelationEdgeStyle;endArrow=ERzeroToMany;startArrow=ERone;endFill=1;startFill=0;" parent="1" target="C-vyLk0tnHw3VtMMgP7b-17" edge="1">
          <mxGeometry width="100" height="100" relative="1" as="geometry">
            <mxPoint x="700" y="165" as="sourcePoint" />
            <mxPoint x="460" y="205" as="targetPoint" />
          </mxGeometry>
        </mxCell>
        <mxCell id="E6mBlBKk1vPAGo09ePSr-1" value="album" style="shape=table;startSize=30;container=1;collapsible=1;childLayout=tableLayout;fixedRows=1;rowLines=0;fontStyle=1;align=center;resizeLast=1;" vertex="1" parent="1">
          <mxGeometry x="335" y="300" width="175" height="210" as="geometry" />
        </mxCell>
        <mxCell id="E6mBlBKk1vPAGo09ePSr-2" value="" style="shape=partialRectangle;collapsible=0;dropTarget=0;pointerEvents=0;fillColor=none;top=0;left=0;bottom=1;right=0;points=[[0,0.5],[1,0.5]];portConstraint=eastwest;" vertex="1" parent="E6mBlBKk1vPAGo09ePSr-1">
          <mxGeometry y="30" width="175" height="30" as="geometry" />
        </mxCell>
        <mxCell id="E6mBlBKk1vPAGo09ePSr-3" value="PK" style="shape=partialRectangle;connectable=0;fillColor=none;top=0;left=0;bottom=0;right=0;fontStyle=1;overflow=hidden;" vertex="1" parent="E6mBlBKk1vPAGo09ePSr-2">
          <mxGeometry width="30" height="30" as="geometry" />
        </mxCell>
        <mxCell id="E6mBlBKk1vPAGo09ePSr-4" value="album_id" style="shape=partialRectangle;connectable=0;fillColor=none;top=0;left=0;bottom=0;right=0;align=left;spacingLeft=6;fontStyle=5;overflow=hidden;" vertex="1" parent="E6mBlBKk1vPAGo09ePSr-2">
          <mxGeometry x="30" width="145" height="30" as="geometry" />
        </mxCell>
        <mxCell id="E6mBlBKk1vPAGo09ePSr-5" value="" style="shape=partialRectangle;collapsible=0;dropTarget=0;pointerEvents=0;fillColor=none;top=0;left=0;bottom=0;right=0;points=[[0,0.5],[1,0.5]];portConstraint=eastwest;" vertex="1" parent="E6mBlBKk1vPAGo09ePSr-1">
          <mxGeometry y="60" width="175" height="30" as="geometry" />
        </mxCell>
        <mxCell id="E6mBlBKk1vPAGo09ePSr-6" value="FK" style="shape=partialRectangle;connectable=0;fillColor=none;top=0;left=0;bottom=0;right=0;editable=1;overflow=hidden;" vertex="1" parent="E6mBlBKk1vPAGo09ePSr-5">
          <mxGeometry width="30" height="30" as="geometry" />
        </mxCell>
        <mxCell id="E6mBlBKk1vPAGo09ePSr-7" value="music_id" style="shape=partialRectangle;connectable=0;fillColor=none;top=0;left=0;bottom=0;right=0;align=left;spacingLeft=6;overflow=hidden;" vertex="1" parent="E6mBlBKk1vPAGo09ePSr-5">
          <mxGeometry x="30" width="145" height="30" as="geometry" />
        </mxCell>
        <mxCell id="E6mBlBKk1vPAGo09ePSr-8" value="" style="shape=partialRectangle;collapsible=0;dropTarget=0;pointerEvents=0;fillColor=none;top=0;left=0;bottom=0;right=0;points=[[0,0.5],[1,0.5]];portConstraint=eastwest;" vertex="1" parent="E6mBlBKk1vPAGo09ePSr-1">
          <mxGeometry y="90" width="175" height="30" as="geometry" />
        </mxCell>
        <mxCell id="E6mBlBKk1vPAGo09ePSr-9" value="" style="shape=partialRectangle;connectable=0;fillColor=none;top=0;left=0;bottom=0;right=0;editable=1;overflow=hidden;" vertex="1" parent="E6mBlBKk1vPAGo09ePSr-8">
          <mxGeometry width="30" height="30" as="geometry" />
        </mxCell>
        <mxCell id="E6mBlBKk1vPAGo09ePSr-10" value="title" style="shape=partialRectangle;connectable=0;fillColor=none;top=0;left=0;bottom=0;right=0;align=left;spacingLeft=6;overflow=hidden;" vertex="1" parent="E6mBlBKk1vPAGo09ePSr-8">
          <mxGeometry x="30" width="145" height="30" as="geometry" />
        </mxCell>
        <mxCell id="E6mBlBKk1vPAGo09ePSr-67" value="" style="shape=partialRectangle;collapsible=0;dropTarget=0;pointerEvents=0;fillColor=none;top=0;left=0;bottom=0;right=0;points=[[0,0.5],[1,0.5]];portConstraint=eastwest;" vertex="1" parent="E6mBlBKk1vPAGo09ePSr-1">
          <mxGeometry y="120" width="175" height="20" as="geometry" />
        </mxCell>
        <mxCell id="E6mBlBKk1vPAGo09ePSr-68" value="FK" style="shape=partialRectangle;connectable=0;fillColor=none;top=0;left=0;bottom=0;right=0;fontStyle=0;overflow=hidden;" vertex="1" parent="E6mBlBKk1vPAGo09ePSr-67">
          <mxGeometry width="30" height="20" as="geometry" />
        </mxCell>
        <mxCell id="E6mBlBKk1vPAGo09ePSr-69" value="artist_id" style="shape=partialRectangle;connectable=0;fillColor=none;top=0;left=0;bottom=0;right=0;align=left;spacingLeft=6;fontStyle=0;overflow=hidden;" vertex="1" parent="E6mBlBKk1vPAGo09ePSr-67">
          <mxGeometry x="30" width="145" height="20" as="geometry" />
        </mxCell>
        <mxCell id="E6mBlBKk1vPAGo09ePSr-63" value="" style="shape=partialRectangle;collapsible=0;dropTarget=0;pointerEvents=0;fillColor=none;top=0;left=0;bottom=0;right=0;points=[[0,0.5],[1,0.5]];portConstraint=eastwest;" vertex="1" parent="E6mBlBKk1vPAGo09ePSr-1">
          <mxGeometry y="140" width="175" height="20" as="geometry" />
        </mxCell>
        <mxCell id="E6mBlBKk1vPAGo09ePSr-64" value="" style="shape=partialRectangle;connectable=0;fillColor=none;top=0;left=0;bottom=0;right=0;fontStyle=0;overflow=hidden;" vertex="1" parent="E6mBlBKk1vPAGo09ePSr-63">
          <mxGeometry width="30" height="20" as="geometry" />
        </mxCell>
        <mxCell id="E6mBlBKk1vPAGo09ePSr-65" value="" style="shape=partialRectangle;connectable=0;fillColor=none;top=0;left=0;bottom=0;right=0;align=left;spacingLeft=6;fontStyle=0;overflow=hidden;" vertex="1" parent="E6mBlBKk1vPAGo09ePSr-63">
          <mxGeometry x="30" width="145" height="20" as="geometry" />
        </mxCell>
        <mxCell id="E6mBlBKk1vPAGo09ePSr-14" value="" style="shape=partialRectangle;collapsible=0;dropTarget=0;pointerEvents=0;fillColor=none;top=0;left=0;bottom=0;right=0;points=[[0,0.5],[1,0.5]];portConstraint=eastwest;" vertex="1" parent="E6mBlBKk1vPAGo09ePSr-1">
          <mxGeometry y="160" width="175" height="30" as="geometry" />
        </mxCell>
        <mxCell id="E6mBlBKk1vPAGo09ePSr-15" value="FK" style="shape=partialRectangle;connectable=0;fillColor=none;top=0;left=0;bottom=0;right=0;editable=1;overflow=hidden;" vertex="1" parent="E6mBlBKk1vPAGo09ePSr-14">
          <mxGeometry width="30" height="30" as="geometry" />
        </mxCell>
        <mxCell id="E6mBlBKk1vPAGo09ePSr-16" value="style_id" style="shape=partialRectangle;connectable=0;fillColor=none;top=0;left=0;bottom=0;right=0;align=left;spacingLeft=6;overflow=hidden;" vertex="1" parent="E6mBlBKk1vPAGo09ePSr-14">
          <mxGeometry x="30" width="145" height="30" as="geometry" />
        </mxCell>
        <mxCell id="E6mBlBKk1vPAGo09ePSr-11" value="" style="shape=partialRectangle;collapsible=0;dropTarget=0;pointerEvents=0;fillColor=none;top=0;left=0;bottom=0;right=0;points=[[0,0.5],[1,0.5]];portConstraint=eastwest;" vertex="1" parent="E6mBlBKk1vPAGo09ePSr-1">
          <mxGeometry y="190" width="175" height="20" as="geometry" />
        </mxCell>
        <mxCell id="E6mBlBKk1vPAGo09ePSr-12" value="" style="shape=partialRectangle;connectable=0;fillColor=none;top=0;left=0;bottom=0;right=0;editable=1;overflow=hidden;" vertex="1" parent="E6mBlBKk1vPAGo09ePSr-11">
          <mxGeometry width="30" height="20" as="geometry" />
        </mxCell>
        <mxCell id="E6mBlBKk1vPAGo09ePSr-13" value="" style="shape=partialRectangle;connectable=0;fillColor=none;top=0;left=0;bottom=0;right=0;align=left;spacingLeft=6;overflow=hidden;" vertex="1" parent="E6mBlBKk1vPAGo09ePSr-11">
          <mxGeometry x="30" width="145" height="20" as="geometry" />
        </mxCell>
        <mxCell id="E6mBlBKk1vPAGo09ePSr-17" value="artist" style="shape=table;startSize=30;container=1;collapsible=1;childLayout=tableLayout;fixedRows=1;rowLines=0;fontStyle=1;align=center;resizeLast=1;" vertex="1" parent="1">
          <mxGeometry x="70" y="140" width="180" height="160" as="geometry" />
        </mxCell>
        <mxCell id="E6mBlBKk1vPAGo09ePSr-18" value="" style="shape=partialRectangle;collapsible=0;dropTarget=0;pointerEvents=0;fillColor=none;top=0;left=0;bottom=1;right=0;points=[[0,0.5],[1,0.5]];portConstraint=eastwest;" vertex="1" parent="E6mBlBKk1vPAGo09ePSr-17">
          <mxGeometry y="30" width="180" height="30" as="geometry" />
        </mxCell>
        <mxCell id="E6mBlBKk1vPAGo09ePSr-19" value="PK" style="shape=partialRectangle;connectable=0;fillColor=none;top=0;left=0;bottom=0;right=0;fontStyle=1;overflow=hidden;" vertex="1" parent="E6mBlBKk1vPAGo09ePSr-18">
          <mxGeometry width="30" height="30" as="geometry" />
        </mxCell>
        <mxCell id="E6mBlBKk1vPAGo09ePSr-20" value="artist_id" style="shape=partialRectangle;connectable=0;fillColor=none;top=0;left=0;bottom=0;right=0;align=left;spacingLeft=6;fontStyle=5;overflow=hidden;" vertex="1" parent="E6mBlBKk1vPAGo09ePSr-18">
          <mxGeometry x="30" width="150" height="30" as="geometry" />
        </mxCell>
        <mxCell id="E6mBlBKk1vPAGo09ePSr-21" value="" style="shape=partialRectangle;collapsible=0;dropTarget=0;pointerEvents=0;fillColor=none;top=0;left=0;bottom=0;right=0;points=[[0,0.5],[1,0.5]];portConstraint=eastwest;" vertex="1" parent="E6mBlBKk1vPAGo09ePSr-17">
          <mxGeometry y="60" width="180" height="30" as="geometry" />
        </mxCell>
        <mxCell id="E6mBlBKk1vPAGo09ePSr-22" value="" style="shape=partialRectangle;connectable=0;fillColor=none;top=0;left=0;bottom=0;right=0;editable=1;overflow=hidden;" vertex="1" parent="E6mBlBKk1vPAGo09ePSr-21">
          <mxGeometry width="30" height="30" as="geometry" />
        </mxCell>
        <mxCell id="E6mBlBKk1vPAGo09ePSr-23" value="name" style="shape=partialRectangle;connectable=0;fillColor=none;top=0;left=0;bottom=0;right=0;align=left;spacingLeft=6;overflow=hidden;" vertex="1" parent="E6mBlBKk1vPAGo09ePSr-21">
          <mxGeometry x="30" width="150" height="30" as="geometry" />
        </mxCell>
        <mxCell id="E6mBlBKk1vPAGo09ePSr-24" value="" style="shape=partialRectangle;collapsible=0;dropTarget=0;pointerEvents=0;fillColor=none;top=0;left=0;bottom=0;right=0;points=[[0,0.5],[1,0.5]];portConstraint=eastwest;" vertex="1" parent="E6mBlBKk1vPAGo09ePSr-17">
          <mxGeometry y="90" width="180" height="30" as="geometry" />
        </mxCell>
        <mxCell id="E6mBlBKk1vPAGo09ePSr-25" value="" style="shape=partialRectangle;connectable=0;fillColor=none;top=0;left=0;bottom=0;right=0;editable=1;overflow=hidden;" vertex="1" parent="E6mBlBKk1vPAGo09ePSr-24">
          <mxGeometry width="30" height="30" as="geometry" />
        </mxCell>
        <mxCell id="E6mBlBKk1vPAGo09ePSr-26" value="" style="shape=partialRectangle;connectable=0;fillColor=none;top=0;left=0;bottom=0;right=0;align=left;spacingLeft=6;overflow=hidden;" vertex="1" parent="E6mBlBKk1vPAGo09ePSr-24">
          <mxGeometry x="30" width="150" height="30" as="geometry" />
        </mxCell>
        <mxCell id="E6mBlBKk1vPAGo09ePSr-27" value="" style="shape=partialRectangle;collapsible=0;dropTarget=0;pointerEvents=0;fillColor=none;top=0;left=0;bottom=0;right=0;points=[[0,0.5],[1,0.5]];portConstraint=eastwest;" vertex="1" parent="E6mBlBKk1vPAGo09ePSr-17">
          <mxGeometry y="120" width="180" height="30" as="geometry" />
        </mxCell>
        <mxCell id="E6mBlBKk1vPAGo09ePSr-28" value="" style="shape=partialRectangle;connectable=0;fillColor=none;top=0;left=0;bottom=0;right=0;editable=1;overflow=hidden;" vertex="1" parent="E6mBlBKk1vPAGo09ePSr-27">
          <mxGeometry width="30" height="30" as="geometry" />
        </mxCell>
        <mxCell id="E6mBlBKk1vPAGo09ePSr-29" value="" style="shape=partialRectangle;connectable=0;fillColor=none;top=0;left=0;bottom=0;right=0;align=left;spacingLeft=6;overflow=hidden;" vertex="1" parent="E6mBlBKk1vPAGo09ePSr-27">
          <mxGeometry x="30" width="150" height="30" as="geometry" />
        </mxCell>
        <mxCell id="E6mBlBKk1vPAGo09ePSr-30" value="music" style="shape=table;startSize=30;container=1;collapsible=1;childLayout=tableLayout;fixedRows=1;rowLines=0;fontStyle=1;align=center;resizeLast=1;" vertex="1" parent="1">
          <mxGeometry x="640" y="135" width="180" height="160" as="geometry" />
        </mxCell>
        <mxCell id="E6mBlBKk1vPAGo09ePSr-31" value="" style="shape=partialRectangle;collapsible=0;dropTarget=0;pointerEvents=0;fillColor=none;top=0;left=0;bottom=1;right=0;points=[[0,0.5],[1,0.5]];portConstraint=eastwest;" vertex="1" parent="E6mBlBKk1vPAGo09ePSr-30">
          <mxGeometry y="30" width="180" height="30" as="geometry" />
        </mxCell>
        <mxCell id="E6mBlBKk1vPAGo09ePSr-32" value="PK" style="shape=partialRectangle;connectable=0;fillColor=none;top=0;left=0;bottom=0;right=0;fontStyle=1;overflow=hidden;" vertex="1" parent="E6mBlBKk1vPAGo09ePSr-31">
          <mxGeometry width="30" height="30" as="geometry" />
        </mxCell>
        <mxCell id="E6mBlBKk1vPAGo09ePSr-33" value="music_id" style="shape=partialRectangle;connectable=0;fillColor=none;top=0;left=0;bottom=0;right=0;align=left;spacingLeft=6;fontStyle=5;overflow=hidden;" vertex="1" parent="E6mBlBKk1vPAGo09ePSr-31">
          <mxGeometry x="30" width="150" height="30" as="geometry" />
        </mxCell>
        <mxCell id="E6mBlBKk1vPAGo09ePSr-34" value="" style="shape=partialRectangle;collapsible=0;dropTarget=0;pointerEvents=0;fillColor=none;top=0;left=0;bottom=0;right=0;points=[[0,0.5],[1,0.5]];portConstraint=eastwest;" vertex="1" parent="E6mBlBKk1vPAGo09ePSr-30">
          <mxGeometry y="60" width="180" height="30" as="geometry" />
        </mxCell>
        <mxCell id="E6mBlBKk1vPAGo09ePSr-35" value="" style="shape=partialRectangle;connectable=0;fillColor=none;top=0;left=0;bottom=0;right=0;editable=1;overflow=hidden;" vertex="1" parent="E6mBlBKk1vPAGo09ePSr-34">
          <mxGeometry width="30" height="30" as="geometry" />
        </mxCell>
        <object label="title" VARCHAR="50" id="E6mBlBKk1vPAGo09ePSr-36">
          <mxCell style="shape=partialRectangle;connectable=0;fillColor=none;top=0;left=0;bottom=0;right=0;align=left;spacingLeft=6;overflow=hidden;" vertex="1" parent="E6mBlBKk1vPAGo09ePSr-34">
            <mxGeometry x="30" width="150" height="30" as="geometry" />
          </mxCell>
        </object>
        <mxCell id="E6mBlBKk1vPAGo09ePSr-37" value="" style="shape=partialRectangle;collapsible=0;dropTarget=0;pointerEvents=0;fillColor=none;top=0;left=0;bottom=0;right=0;points=[[0,0.5],[1,0.5]];portConstraint=eastwest;" vertex="1" parent="E6mBlBKk1vPAGo09ePSr-30">
          <mxGeometry y="90" width="180" height="30" as="geometry" />
        </mxCell>
        <mxCell id="E6mBlBKk1vPAGo09ePSr-38" value="" style="shape=partialRectangle;connectable=0;fillColor=none;top=0;left=0;bottom=0;right=0;editable=1;overflow=hidden;" vertex="1" parent="E6mBlBKk1vPAGo09ePSr-37">
          <mxGeometry width="30" height="30" as="geometry" />
        </mxCell>
        <mxCell id="E6mBlBKk1vPAGo09ePSr-39" value="" style="shape=partialRectangle;connectable=0;fillColor=none;top=0;left=0;bottom=0;right=0;align=left;spacingLeft=6;overflow=hidden;" vertex="1" parent="E6mBlBKk1vPAGo09ePSr-37">
          <mxGeometry x="30" width="150" height="30" as="geometry" />
        </mxCell>
        <mxCell id="E6mBlBKk1vPAGo09ePSr-40" value="" style="shape=partialRectangle;collapsible=0;dropTarget=0;pointerEvents=0;fillColor=none;top=0;left=0;bottom=0;right=0;points=[[0,0.5],[1,0.5]];portConstraint=eastwest;" vertex="1" parent="E6mBlBKk1vPAGo09ePSr-30">
          <mxGeometry y="120" width="180" height="30" as="geometry" />
        </mxCell>
        <mxCell id="E6mBlBKk1vPAGo09ePSr-41" value="" style="shape=partialRectangle;connectable=0;fillColor=none;top=0;left=0;bottom=0;right=0;editable=1;overflow=hidden;" vertex="1" parent="E6mBlBKk1vPAGo09ePSr-40">
          <mxGeometry width="30" height="30" as="geometry" />
        </mxCell>
        <mxCell id="E6mBlBKk1vPAGo09ePSr-42" value="" style="shape=partialRectangle;connectable=0;fillColor=none;top=0;left=0;bottom=0;right=0;align=left;spacingLeft=6;overflow=hidden;" vertex="1" parent="E6mBlBKk1vPAGo09ePSr-40">
          <mxGeometry x="30" width="150" height="30" as="geometry" />
        </mxCell>
        <mxCell id="E6mBlBKk1vPAGo09ePSr-43" value="style" style="shape=table;startSize=30;container=1;collapsible=1;childLayout=tableLayout;fixedRows=1;rowLines=0;fontStyle=1;align=center;resizeLast=1;" vertex="1" parent="1">
          <mxGeometry x="70" y="470" width="180" height="160" as="geometry" />
        </mxCell>
        <mxCell id="E6mBlBKk1vPAGo09ePSr-44" value="" style="shape=partialRectangle;collapsible=0;dropTarget=0;pointerEvents=0;fillColor=none;top=0;left=0;bottom=1;right=0;points=[[0,0.5],[1,0.5]];portConstraint=eastwest;" vertex="1" parent="E6mBlBKk1vPAGo09ePSr-43">
          <mxGeometry y="30" width="180" height="30" as="geometry" />
        </mxCell>
        <mxCell id="E6mBlBKk1vPAGo09ePSr-45" value="PK" style="shape=partialRectangle;connectable=0;fillColor=none;top=0;left=0;bottom=0;right=0;fontStyle=1;overflow=hidden;" vertex="1" parent="E6mBlBKk1vPAGo09ePSr-44">
          <mxGeometry width="30" height="30" as="geometry" />
        </mxCell>
        <mxCell id="E6mBlBKk1vPAGo09ePSr-46" value="style_id" style="shape=partialRectangle;connectable=0;fillColor=none;top=0;left=0;bottom=0;right=0;align=left;spacingLeft=6;fontStyle=5;overflow=hidden;" vertex="1" parent="E6mBlBKk1vPAGo09ePSr-44">
          <mxGeometry x="30" width="150" height="30" as="geometry" />
        </mxCell>
        <mxCell id="E6mBlBKk1vPAGo09ePSr-47" value="" style="shape=partialRectangle;collapsible=0;dropTarget=0;pointerEvents=0;fillColor=none;top=0;left=0;bottom=0;right=0;points=[[0,0.5],[1,0.5]];portConstraint=eastwest;" vertex="1" parent="E6mBlBKk1vPAGo09ePSr-43">
          <mxGeometry y="60" width="180" height="30" as="geometry" />
        </mxCell>
        <mxCell id="E6mBlBKk1vPAGo09ePSr-48" value="" style="shape=partialRectangle;connectable=0;fillColor=none;top=0;left=0;bottom=0;right=0;editable=1;overflow=hidden;" vertex="1" parent="E6mBlBKk1vPAGo09ePSr-47">
          <mxGeometry width="30" height="30" as="geometry" />
        </mxCell>
        <mxCell id="E6mBlBKk1vPAGo09ePSr-49" value="title" style="shape=partialRectangle;connectable=0;fillColor=none;top=0;left=0;bottom=0;right=0;align=left;spacingLeft=6;overflow=hidden;" vertex="1" parent="E6mBlBKk1vPAGo09ePSr-47">
          <mxGeometry x="30" width="150" height="30" as="geometry" />
        </mxCell>
        <mxCell id="E6mBlBKk1vPAGo09ePSr-50" value="" style="shape=partialRectangle;collapsible=0;dropTarget=0;pointerEvents=0;fillColor=none;top=0;left=0;bottom=0;right=0;points=[[0,0.5],[1,0.5]];portConstraint=eastwest;" vertex="1" parent="E6mBlBKk1vPAGo09ePSr-43">
          <mxGeometry y="90" width="180" height="30" as="geometry" />
        </mxCell>
        <mxCell id="E6mBlBKk1vPAGo09ePSr-51" value="" style="shape=partialRectangle;connectable=0;fillColor=none;top=0;left=0;bottom=0;right=0;editable=1;overflow=hidden;" vertex="1" parent="E6mBlBKk1vPAGo09ePSr-50">
          <mxGeometry width="30" height="30" as="geometry" />
        </mxCell>
        <mxCell id="E6mBlBKk1vPAGo09ePSr-52" value="" style="shape=partialRectangle;connectable=0;fillColor=none;top=0;left=0;bottom=0;right=0;align=left;spacingLeft=6;overflow=hidden;" vertex="1" parent="E6mBlBKk1vPAGo09ePSr-50">
          <mxGeometry x="30" width="150" height="30" as="geometry" />
        </mxCell>
        <mxCell id="E6mBlBKk1vPAGo09ePSr-53" value="" style="shape=partialRectangle;collapsible=0;dropTarget=0;pointerEvents=0;fillColor=none;top=0;left=0;bottom=0;right=0;points=[[0,0.5],[1,0.5]];portConstraint=eastwest;" vertex="1" parent="E6mBlBKk1vPAGo09ePSr-43">
          <mxGeometry y="120" width="180" height="30" as="geometry" />
        </mxCell>
        <mxCell id="E6mBlBKk1vPAGo09ePSr-54" value="" style="shape=partialRectangle;connectable=0;fillColor=none;top=0;left=0;bottom=0;right=0;editable=1;overflow=hidden;" vertex="1" parent="E6mBlBKk1vPAGo09ePSr-53">
          <mxGeometry width="30" height="30" as="geometry" />
        </mxCell>
        <mxCell id="E6mBlBKk1vPAGo09ePSr-55" value="" style="shape=partialRectangle;connectable=0;fillColor=none;top=0;left=0;bottom=0;right=0;align=left;spacingLeft=6;overflow=hidden;" vertex="1" parent="E6mBlBKk1vPAGo09ePSr-53">
          <mxGeometry x="30" width="150" height="30" as="geometry" />
        </mxCell>
        <mxCell id="E6mBlBKk1vPAGo09ePSr-70" style="edgeStyle=orthogonalEdgeStyle;rounded=0;orthogonalLoop=1;jettySize=auto;html=1;entryX=1;entryY=0.5;entryDx=0;entryDy=0;" edge="1" parent="1" source="E6mBlBKk1vPAGo09ePSr-67" target="E6mBlBKk1vPAGo09ePSr-18">
          <mxGeometry relative="1" as="geometry" />
        </mxCell>
        <mxCell id="E6mBlBKk1vPAGo09ePSr-71" style="edgeStyle=orthogonalEdgeStyle;rounded=0;orthogonalLoop=1;jettySize=auto;html=1;entryX=0;entryY=0.5;entryDx=0;entryDy=0;" edge="1" parent="1" source="E6mBlBKk1vPAGo09ePSr-5" target="E6mBlBKk1vPAGo09ePSr-31">
          <mxGeometry relative="1" as="geometry" />
        </mxCell>
        <mxCell id="E6mBlBKk1vPAGo09ePSr-76" style="edgeStyle=orthogonalEdgeStyle;rounded=0;orthogonalLoop=1;jettySize=auto;html=1;entryX=0;entryY=0.5;entryDx=0;entryDy=0;" edge="1" parent="1" source="E6mBlBKk1vPAGo09ePSr-44" target="E6mBlBKk1vPAGo09ePSr-14">
          <mxGeometry relative="1" as="geometry" />
        </mxCell>
      </root>
    </mxGraphModel>
  </diagram>
</mxfile>
